<svg xmlns="http://www.w3.org/2000/svg" xmlns:xlink="http://www.w3.org/1999/xlink" width="112" zoomAndPan="magnify" viewBox="0 0 84 42" height="56" preserveAspectRatio="xMidYMid meet" version="1.0"><defs><clipPath id="41e07d21ab"><path d="M 29 0.882812 L 53.472656 0.882812 L 53.472656 40.441406 L 29 40.441406 Z M 29 0.882812 " clip-rule="nonzero"/></clipPath><clipPath id="d5b32783f3"><path d="M 22.707031 10 L 43 10 L 43 30 L 22.707031 30 Z M 22.707031 10 " clip-rule="nonzero"/></clipPath></defs><g clip-path="url(#41e07d21ab)"><path fill="#008037" d="M 51.464844 0.972656 L 31.425781 0.972656 C 31.164062 0.972656 30.910156 1.023438 30.667969 1.125 C 30.425781 1.226562 30.210938 1.375 30.023438 1.5625 C 29.835938 1.75 29.691406 1.96875 29.59375 2.21875 C 29.492188 2.464844 29.441406 2.722656 29.4375 2.988281 L 29.4375 9.878906 L 30.042969 9.878906 L 30.042969 6.371094 L 52.84375 6.371094 L 52.84375 34.398438 L 30.046875 34.398438 L 30.046875 27.140625 L 29.441406 27.910156 L 29.441406 38.332031 C 29.441406 38.601562 29.492188 38.859375 29.59375 39.105469 C 29.695312 39.351562 29.839844 39.570312 30.023438 39.761719 C 30.210938 39.949219 30.425781 40.09375 30.667969 40.195312 C 30.910156 40.300781 31.164062 40.351562 31.429688 40.351562 L 51.464844 40.351562 C 51.730469 40.351562 51.980469 40.296875 52.222656 40.195312 C 52.46875 40.09375 52.679688 39.949219 52.867188 39.757812 C 53.054688 39.570312 53.195312 39.351562 53.296875 39.105469 C 53.398438 38.855469 53.449219 38.601562 53.449219 38.332031 L 53.449219 2.988281 C 53.449219 2.722656 53.398438 2.464844 53.296875 2.21875 C 53.195312 1.972656 53.054688 1.753906 52.867188 1.5625 C 52.679688 1.375 52.464844 1.230469 52.222656 1.125 C 51.980469 1.023438 51.726562 0.972656 51.464844 0.972656 Z M 44.046875 4.660156 L 38.839844 4.660156 C 38.601562 4.660156 38.398438 4.574219 38.230469 4.402344 C 38.058594 4.230469 37.976562 4.023438 37.976562 3.78125 C 37.976562 3.539062 38.058594 3.332031 38.230469 3.160156 C 38.398438 2.988281 38.601562 2.902344 38.839844 2.902344 L 44.046875 2.902344 C 44.285156 2.902344 44.492188 2.988281 44.660156 3.160156 C 44.828125 3.332031 44.910156 3.539062 44.910156 3.78125 C 44.910156 4.023438 44.828125 4.230469 44.660156 4.402344 C 44.492188 4.574219 44.285156 4.660156 44.046875 4.660156 Z M 41.445312 39.15625 C 41.210938 39.15625 40.988281 39.113281 40.773438 39.019531 C 40.558594 38.929688 40.367188 38.800781 40.203125 38.632812 C 40.039062 38.46875 39.914062 38.273438 39.824219 38.054688 C 39.734375 37.835938 39.691406 37.609375 39.691406 37.371094 C 39.691406 37.136719 39.734375 36.910156 39.824219 36.691406 C 39.914062 36.472656 40.039062 36.277344 40.203125 36.109375 C 40.367188 35.945312 40.558594 35.816406 40.773438 35.722656 C 40.988281 35.632812 41.210938 35.589844 41.445312 35.589844 C 41.675781 35.589844 41.898438 35.632812 42.113281 35.722656 C 42.328125 35.816406 42.519531 35.945312 42.683594 36.109375 C 42.847656 36.277344 42.976562 36.472656 43.0625 36.691406 C 43.152344 36.910156 43.199219 37.136719 43.199219 37.371094 C 43.199219 37.609375 43.152344 37.835938 43.0625 38.054688 C 42.976562 38.273438 42.847656 38.46875 42.683594 38.632812 C 42.519531 38.800781 42.328125 38.929688 42.113281 39.019531 C 41.898438 39.113281 41.675781 39.15625 41.445312 39.15625 Z M 41.445312 39.15625 " fill-opacity="1" fill-rule="nonzero"/></g><path fill="#008037" d="M 36.789062 17.867188 C 36.789062 17.574219 36.761719 17.289062 36.707031 17 C 36.648438 16.714844 36.566406 16.4375 36.457031 16.167969 C 36.347656 15.898438 36.210938 15.644531 36.050781 15.402344 C 35.890625 15.15625 35.710938 14.933594 35.507812 14.726562 C 35.304688 14.523438 35.082031 14.335938 34.84375 14.175781 C 34.605469 14.015625 34.355469 13.878906 34.089844 13.765625 C 33.824219 13.65625 33.550781 13.570312 33.269531 13.515625 C 32.988281 13.457031 32.703125 13.429688 32.417969 13.429688 C 32.132812 13.429688 31.847656 13.457031 31.566406 13.515625 C 31.285156 13.574219 31.011719 13.65625 30.746094 13.769531 C 30.480469 13.878906 30.230469 14.015625 29.992188 14.179688 C 29.753906 14.339844 29.535156 14.527344 29.332031 14.730469 C 29.128906 14.9375 28.945312 15.164062 28.789062 15.40625 C 28.628906 15.648438 28.492188 15.902344 28.382812 16.171875 C 28.273438 16.441406 28.191406 16.722656 28.136719 17.007812 C 28.082031 17.292969 28.050781 17.582031 28.050781 17.875 C 28.050781 18.164062 28.082031 18.453125 28.136719 18.742188 C 28.191406 19.027344 28.273438 19.304688 28.382812 19.574219 C 28.496094 19.84375 28.628906 20.101562 28.789062 20.34375 C 28.949219 20.585938 29.128906 20.808594 29.332031 21.015625 C 29.535156 21.222656 29.753906 21.40625 29.992188 21.570312 C 30.230469 21.730469 30.484375 21.867188 30.75 21.980469 C 31.011719 22.089844 31.285156 22.175781 31.566406 22.234375 C 31.847656 22.289062 32.132812 22.316406 32.417969 22.320312 C 32.707031 22.320312 32.992188 22.289062 33.273438 22.234375 C 33.554688 22.175781 33.828125 22.089844 34.09375 21.980469 C 34.359375 21.867188 34.609375 21.730469 34.847656 21.566406 C 35.085938 21.40625 35.308594 21.222656 35.511719 21.015625 C 35.714844 20.808594 35.894531 20.582031 36.054688 20.339844 C 36.214844 20.097656 36.347656 19.839844 36.457031 19.570312 C 36.570312 19.300781 36.652344 19.023438 36.707031 18.734375 C 36.761719 18.449219 36.789062 18.160156 36.789062 17.867188 Z M 36.789062 17.867188 " fill-opacity="1" fill-rule="nonzero"/><g clip-path="url(#d5b32783f3)"><path fill="#008037" d="M 41.003906 25.15625 C 41.15625 25.15625 41.304688 25.125 41.445312 25.066406 C 41.585938 25.003906 41.710938 24.921875 41.816406 24.8125 C 41.925781 24.699219 42.011719 24.574219 42.070312 24.429688 C 42.128906 24.285156 42.15625 24.136719 42.15625 23.980469 L 42.15625 11.667969 C 42.15625 11.511719 42.128906 11.363281 42.070312 11.21875 C 42.007812 11.078125 41.925781 10.949219 41.816406 10.839844 C 41.710938 10.730469 41.585938 10.644531 41.445312 10.585938 C 41.304688 10.523438 41.15625 10.496094 41.003906 10.496094 L 23.847656 10.496094 C 23.691406 10.496094 23.546875 10.523438 23.40625 10.585938 C 23.261719 10.644531 23.140625 10.730469 23.03125 10.839844 C 22.921875 10.949219 22.839844 11.074219 22.78125 11.21875 C 22.722656 11.363281 22.691406 11.511719 22.691406 11.667969 L 22.691406 23.980469 C 22.691406 24.136719 22.722656 24.285156 22.78125 24.429688 C 22.839844 24.574219 22.921875 24.699219 23.03125 24.8125 C 23.140625 24.921875 23.261719 25.003906 23.40625 25.066406 C 23.546875 25.125 23.691406 25.15625 23.847656 25.15625 L 26.1875 25.265625 L 26.566406 29.386719 C 26.621094 29.464844 26.6875 29.523438 26.769531 29.566406 C 26.851562 29.609375 26.941406 29.632812 27.035156 29.632812 C 27.125 29.632812 27.214844 29.609375 27.296875 29.566406 C 27.378906 29.523438 27.449219 29.464844 27.503906 29.386719 L 30.742188 25.265625 Z M 26.867188 17.867188 C 26.867188 17.496094 26.902344 17.128906 26.972656 16.765625 C 27.046875 16.402344 27.152344 16.046875 27.292969 15.707031 C 27.433594 15.363281 27.601562 15.039062 27.804688 14.730469 C 28.007812 14.421875 28.238281 14.136719 28.496094 13.875 C 28.757812 13.613281 29.035156 13.378906 29.339844 13.171875 C 29.644531 12.964844 29.964844 12.792969 30.300781 12.652344 C 30.636719 12.507812 30.984375 12.402344 31.34375 12.332031 C 31.703125 12.257812 32.0625 12.222656 32.425781 12.222656 C 32.792969 12.222656 33.152344 12.261719 33.511719 12.332031 C 33.867188 12.40625 34.214844 12.511719 34.550781 12.65625 C 34.890625 12.796875 35.210938 12.972656 35.511719 13.179688 C 35.816406 13.386719 36.09375 13.621094 36.351562 13.882812 C 36.609375 14.144531 36.839844 14.429688 37.042969 14.738281 C 37.246094 15.046875 37.417969 15.375 37.554688 15.71875 C 37.695312 16.058594 37.800781 16.414062 37.871094 16.777344 C 37.941406 17.140625 37.976562 17.507812 37.976562 17.878906 C 37.976562 18.25 37.941406 18.617188 37.867188 18.980469 C 37.796875 19.347656 37.691406 19.699219 37.550781 20.042969 C 37.410156 20.382812 37.238281 20.710938 37.035156 21.019531 C 36.832031 21.328125 36.601562 21.613281 36.34375 21.875 C 36.085938 22.136719 35.804688 22.371094 35.503906 22.574219 C 35.199219 22.78125 34.878906 22.953125 34.542969 23.097656 C 34.203125 23.238281 33.855469 23.34375 33.5 23.417969 C 33.140625 23.488281 32.78125 23.523438 32.414062 23.523438 C 32.050781 23.523438 31.6875 23.488281 31.332031 23.414062 C 30.972656 23.34375 30.625 23.234375 30.289062 23.09375 C 29.953125 22.953125 29.632812 22.777344 29.328125 22.570312 C 29.027344 22.363281 28.746094 22.128906 28.488281 21.867188 C 28.230469 21.605469 28 21.316406 27.796875 21.007812 C 27.59375 20.699219 27.425781 20.375 27.285156 20.03125 C 27.148438 19.6875 27.042969 19.335938 26.972656 18.96875 C 26.902344 18.605469 26.867188 18.238281 26.867188 17.867188 Z M 26.867188 17.867188 " fill-opacity="1" fill-rule="nonzero"/></g></svg>