<svg xmlns="http://www.w3.org/2000/svg" xmlns:xlink="http://www.w3.org/1999/xlink" width="112" zoomAndPan="magnify" viewBox="0 0 84 42" height="56" preserveAspectRatio="xMidYMid meet" version="1.0"><defs><clipPath id="b26b8d6237"><path d="M 29.550781 1.507812 L 54.460938 1.507812 L 54.460938 39.601562 L 29.550781 39.601562 Z M 29.550781 1.507812 " clip-rule="nonzero"/></clipPath></defs><g clip-path="url(#b26b8d6237)"><path fill="#008037" d="M 54.460938 4.800781 C 54.460938 2.988281 52.992188 1.519531 51.183594 1.519531 L 32.828125 1.519531 C 31.019531 1.519531 29.550781 2.988281 29.550781 4.800781 C 29.550781 4.800781 29.550781 36.308594 29.550781 36.308594 C 29.550781 38.121094 31.019531 39.589844 32.828125 39.589844 C 32.828125 39.589844 51.183594 39.589844 51.183594 39.589844 C 52.992188 39.589844 54.460938 38.121094 54.460938 36.308594 Z M 53.148438 34.339844 L 53.148438 36.308594 C 53.148438 37.394531 52.265625 38.277344 51.183594 38.277344 L 32.828125 38.277344 C 31.746094 38.277344 30.863281 37.394531 30.863281 36.308594 L 30.863281 34.339844 Z M 40.039062 36.964844 L 43.972656 36.964844 C 44.335938 36.964844 44.628906 36.671875 44.628906 36.308594 C 44.628906 35.945312 44.335938 35.652344 43.972656 35.652344 L 40.039062 35.652344 C 39.679688 35.652344 39.382812 35.945312 39.382812 36.308594 C 39.382812 36.671875 39.679688 36.964844 40.039062 36.964844 Z M 53.148438 33.027344 L 30.863281 33.027344 L 30.863281 4.800781 C 30.863281 3.714844 31.746094 2.832031 32.828125 2.832031 C 32.828125 2.832031 51.183594 2.832031 51.183594 2.832031 C 52.265625 2.832031 53.148438 3.714844 53.148438 4.800781 Z M 34.125 26.101562 L 33.511719 28.25 C 33.429688 28.53125 33.542969 28.828125 33.785156 28.984375 C 34.03125 29.140625 34.347656 29.117188 34.566406 28.929688 L 37.441406 26.460938 C 37.441406 26.460938 42.007812 26.460938 42.007812 26.460938 C 43.453125 26.460938 44.628906 25.285156 44.628906 23.835938 L 44.628906 19.898438 C 44.628906 18.449219 43.453125 17.273438 42.007812 17.273438 C 42.007812 17.273438 35.453125 17.273438 35.453125 17.273438 C 34.003906 17.273438 32.828125 18.449219 32.828125 19.898438 L 32.828125 23.835938 C 32.828125 24.800781 33.347656 25.644531 34.125 26.101562 Z M 35.542969 25.910156 C 35.589844 25.742188 35.570312 25.5625 35.484375 25.410156 C 35.398438 25.257812 35.257812 25.148438 35.089844 25.097656 C 34.542969 24.941406 34.140625 24.4375 34.140625 23.835938 C 34.140625 23.835938 34.140625 19.898438 34.140625 19.898438 C 34.140625 19.171875 34.726562 18.585938 35.453125 18.585938 L 42.007812 18.585938 C 42.730469 18.585938 43.316406 19.171875 43.316406 19.898438 C 43.316406 19.898438 43.316406 23.835938 43.316406 23.835938 C 43.316406 24.5625 42.730469 25.148438 42.007812 25.148438 L 37.199219 25.148438 C 37.042969 25.148438 36.890625 25.203125 36.773438 25.308594 L 35.371094 26.511719 C 35.371094 26.511719 35.542969 25.910156 35.542969 25.910156 Z M 36.105469 21.210938 C 35.746094 21.210938 35.453125 21.503906 35.453125 21.867188 C 35.453125 22.230469 35.746094 22.523438 36.105469 22.523438 C 36.46875 22.523438 36.761719 22.230469 36.761719 21.867188 C 36.761719 21.503906 36.46875 21.210938 36.105469 21.210938 Z M 38.730469 21.210938 C 38.367188 21.210938 38.074219 21.503906 38.074219 21.867188 C 38.074219 22.230469 38.367188 22.523438 38.730469 22.523438 C 39.089844 22.523438 39.382812 22.230469 39.382812 21.867188 C 39.382812 21.503906 39.089844 21.210938 38.730469 21.210938 Z M 41.351562 21.210938 C 40.988281 21.210938 40.695312 21.503906 40.695312 21.867188 C 40.695312 22.230469 40.988281 22.523438 41.351562 22.523438 C 41.710938 22.523438 42.007812 22.230469 42.007812 21.867188 C 42.007812 21.503906 41.710938 21.210938 41.351562 21.210938 Z M 50.542969 15.597656 C 51.316406 15.140625 51.835938 14.296875 51.835938 13.332031 L 51.835938 9.394531 C 51.835938 7.945312 50.664062 6.769531 49.214844 6.769531 C 49.214844 6.769531 42.660156 6.769531 42.660156 6.769531 C 41.214844 6.769531 40.039062 7.945312 40.039062 9.394531 C 40.039062 9.394531 40.039062 13.332031 40.039062 13.332031 C 40.039062 14.78125 41.214844 15.960938 42.660156 15.960938 C 42.660156 15.960938 47.226562 15.960938 47.226562 15.960938 C 47.226562 15.960938 50.101562 18.425781 50.101562 18.425781 C 50.320312 18.617188 50.636719 18.636719 50.878906 18.480469 C 51.125 18.324219 51.238281 18.027344 51.15625 17.746094 Z M 49.578125 14.597656 C 49.410156 14.644531 49.269531 14.757812 49.183594 14.910156 C 49.097656 15.0625 49.078125 15.242188 49.125 15.40625 L 49.296875 16.007812 C 49.296875 16.007812 47.894531 14.804688 47.894531 14.804688 C 47.777344 14.703125 47.625 14.644531 47.46875 14.644531 L 42.660156 14.644531 C 41.9375 14.644531 41.351562 14.058594 41.351562 13.332031 L 41.351562 9.394531 C 41.351562 8.671875 41.9375 8.082031 42.660156 8.082031 L 49.214844 8.082031 C 49.9375 8.082031 50.527344 8.671875 50.527344 9.394531 C 50.527344 9.394531 50.527344 13.332031 50.527344 13.332031 C 50.527344 13.933594 50.125 14.441406 49.578125 14.597656 Z M 43.316406 10.707031 C 42.953125 10.707031 42.660156 11 42.660156 11.363281 C 42.660156 11.726562 42.953125 12.019531 43.316406 12.019531 C 43.679688 12.019531 43.972656 11.726562 43.972656 11.363281 C 43.972656 11 43.679688 10.707031 43.316406 10.707031 Z M 45.9375 10.707031 C 45.578125 10.707031 45.28125 11 45.28125 11.363281 C 45.28125 11.726562 45.578125 12.019531 45.9375 12.019531 C 46.300781 12.019531 46.59375 11.726562 46.59375 11.363281 C 46.59375 11 46.300781 10.707031 45.9375 10.707031 Z M 48.558594 10.707031 C 48.199219 10.707031 47.90625 11 47.90625 11.363281 C 47.90625 11.726562 48.199219 12.019531 48.558594 12.019531 C 48.921875 12.019531 49.214844 11.726562 49.214844 11.363281 C 49.214844 11 48.921875 10.707031 48.558594 10.707031 Z M 48.558594 10.707031 " fill-opacity="1" fill-rule="evenodd"/></g></svg>