<svg xmlns="http://www.w3.org/2000/svg" xmlns:xlink="http://www.w3.org/1999/xlink" width="112" zoomAndPan="magnify" viewBox="0 0 84 42" height="56" preserveAspectRatio="xMidYMid meet" version="1.0"><defs><clipPath id="57068b449a"><path d="M 34.597656 14.113281 L 49.957031 14.113281 L 49.957031 40.285156 L 34.597656 40.285156 Z M 34.597656 14.113281 " clip-rule="nonzero"/></clipPath><clipPath id="bcafb0160f"><path d="M 35.636719 15.460938 L 49.957031 15.460938 L 49.957031 40.257812 L 35.636719 40.257812 Z M 35.636719 15.460938 " clip-rule="nonzero"/></clipPath><clipPath id="563c71112a"><path d="M 34.664062 18.285156 C 34.664062 18.285156 37.570312 25.496094 38.65625 28.320312 C 40.132812 32.152344 42.296875 37.960938 43.421875 39.675781 C 43.832031 40.300781 44.683594 41.027344 45.398438 38.59375 C 46.398438 35.171875 47.722656 25.960938 49.003906 19.007812 C 49.039062 18.804688 49.886719 14.199219 49.886719 14.199219 C 49.886719 14.199219 44.515625 15.902344 42.269531 16.613281 C 39.792969 17.398438 37.183594 17.667969 34.664062 18.285156 Z M 34.664062 18.285156 " clip-rule="nonzero"/></clipPath><clipPath id="b7d2a9a4bc"><path d="M 30.34375 0.726562 L 53.765625 0.726562 L 53.765625 20.855469 L 30.34375 20.855469 Z M 30.34375 0.726562 " clip-rule="nonzero"/></clipPath></defs><g clip-path="url(#57068b449a)"><path fill="#e59314" d="M 34.664062 18.285156 C 37.183594 17.667969 39.792969 17.398438 42.269531 16.613281 C 44.515625 15.902344 49.886719 14.199219 49.886719 14.199219 C 49.886719 14.199219 49.039062 18.804688 49.003906 19.007812 C 47.722656 25.960938 46.398438 35.171875 45.398438 38.59375 C 44.683594 41.027344 43.832031 40.300781 43.421875 39.675781 C 42.296875 37.960938 40.132812 32.152344 38.65625 28.320312 C 37.570312 25.496094 34.664062 18.285156 34.664062 18.285156 " fill-opacity="1" fill-rule="evenodd"/></g><g clip-path="url(#bcafb0160f)"><g clip-path="url(#563c71112a)"><path stroke-linecap="round" transform="matrix(0.0103767, 0, 0, -0.0103762, 30.344956, 40.286556)" fill="none" stroke-linejoin="round" d="M 1886.616744 1588.809925 C 1857.630623 1579.774807 1693.501421 1266.180901 1674.302821 1233.805059 C 1516.573152 967.269062 1228.594161 507.607407 1066.723617 244.083116 M 1922.755284 2218.256517 C 1930.66059 2206.962619 1905.062457 2197.174574 1897.533595 2185.504212 C 1815.468993 2062.024259 1738.298153 1935.156136 1655.104222 1812.429109 C 1381.43007 1407.731091 1120.554984 994.374418 850.268821 588.54701 M 1668.656175 2362.44195 C 1602.025741 2308.231239 1454.460036 2059.389016 1397.240681 1981.837582 C 1210.148448 1728.477799 1044.513473 1461.941803 876.243396 1196.535195 C 841.610629 1141.571558 773.09798 1071.925852 757.287369 1008.303559 M 1159.705069 2228.797489 C 1175.139237 2216.374201 1133.730494 2199.433353 1122.060757 2183.621896 C 1081.404899 2129.787648 1040.372599 2075.9534 999.716741 2021.742689 C 843.869287 1813.182036 668.070348 1614.409428 523.516188 1397.566583 M 660.541485 1447.259735 C 810.742292 1228.534574 1321.575613 248.977139 1449.942719 16.699299 M 1381.053627 2374.865238 C 1390.841148 2292.419782 1446.931174 2200.18628 1479.305283 2126.023015 C 1574.545393 1908.05078 1681.078798 1695.725495 1778.577567 1479.259113 M 1033.220179 2287.525759 L 1717.970224 875.035561 M 682.375187 2102.682292 C 680.492971 2095.52949 867.961647 1714.548658 881.137157 1685.93745 C 1071.240935 1278.980652 1404.016658 753.814387 1583.956471 342.34003 " stroke="#bc4620" stroke-width="24.389999" stroke-opacity="1" stroke-miterlimit="10"/></g></g><g clip-path="url(#b7d2a9a4bc)"><path fill="#008037" d="M 30.347656 17.140625 C 30.429688 14.882812 33.578125 15.609375 33.175781 14.28125 C 30.316406 4.84375 37.4375 1.898438 40.566406 1.03125 C 44.132812 0.046875 50.371094 2.441406 51.300781 7.113281 C 51.527344 8.253906 51.34375 10.535156 50.976562 11.636719 C 50.957031 11.699219 53.6875 12.363281 53.761719 14.671875 C 53.820312 16.4375 51.835938 17.328125 50.316406 17.492188 C 48.671875 17.667969 47.773438 15.441406 47.773438 15.441406 C 47.773438 15.441406 47.070312 17.90625 46.558594 18.375 C 43.679688 21.015625 41.300781 17.066406 41.300781 17.066406 C 41.300781 17.066406 41.203125 20.132812 39.257812 20.675781 C 37.910156 21.050781 36.4375 19.082031 36.4375 19.082031 C 36.4375 19.082031 35.257812 21.089844 33.820312 20.789062 C 32.476562 20.503906 32.65625 18.660156 32.65625 18.660156 C 32.65625 18.660156 30.28125 18.953125 30.347656 17.140625 " fill-opacity="1" fill-rule="evenodd"/></g><path fill="#b6e7f2" d="M 37.265625 3.558594 C 38.035156 3.882812 36.1875 5.0625 36.046875 5.199219 C 35.800781 5.441406 35.617188 5.742188 35.480469 6.058594 C 35.324219 6.425781 35.40625 7.59375 34.980469 7.414062 C 34.777344 7.328125 34.734375 5.515625 35.445312 4.734375 C 35.855469 4.285156 37.265625 3.558594 37.265625 3.558594 " fill-opacity="1" fill-rule="evenodd"/><path fill="#b6e7f2" d="M 34.414062 9.738281 C 34.066406 9.621094 34.300781 8.96875 34.378906 8.757812 C 34.667969 7.980469 34.816406 8.4375 34.894531 8.945312 C 34.921875 9.109375 34.855469 9.890625 34.414062 9.738281 " fill-opacity="1" fill-rule="evenodd"/><path fill="#d61e25" d="M 45.644531 2.722656 C 46.789062 2.941406 47.039062 5.425781 45.300781 5.339844 C 44.878906 5.320312 44.289062 5.039062 44.15625 4.300781 C 44.019531 3.535156 44.578125 2.519531 45.644531 2.722656 " fill-opacity="1" fill-rule="evenodd"/><path stroke-linecap="round" transform="matrix(0.0103767, 0, 0, -0.0103762, 30.344956, 40.286561)" fill="none" stroke-linejoin="round" d="M 1465.75333 3555.830976 C 1453.330707 3623.217902 1676.937923 3870.554272 1749.215003 3870.554272 " stroke="#271b1b" stroke-width="24.389999" stroke-opacity="1" stroke-miterlimit="10"/><path stroke-linecap="round" transform="matrix(0.0103767, 0, 0, -0.0103762, 30.344956, 40.286561)" fill="none" stroke-linejoin="round" d="M 1372.018992 3450.42126 C 1366.748788 3453.432966 1379.171411 3441.386141 1383.312286 3437.245045 M 1405.52243 3557.713292 C 1405.898873 3557.336829 1405.52243 3558.466219 1405.52243 3558.466219 C 1402.887328 3568.630727 1388.206046 3555.078049 1385.947388 3552.442807 C 1373.901208 3537.760739 1372.018992 3517.808186 1372.018992 3499.737948 " stroke="#b6e7f2" stroke-width="24.389999" stroke-opacity="1" stroke-miterlimit="10"/></svg>