<svg xmlns="http://www.w3.org/2000/svg" xmlns:xlink="http://www.w3.org/1999/xlink" width="112" zoomAndPan="magnify" viewBox="0 0 84 42" height="56" preserveAspectRatio="xMidYMid meet" version="1.0"><defs><clipPath id="c1c697b1f7"><path d="M 22.402344 0 L 46 0 L 46 39.632812 L 22.402344 39.632812 Z M 22.402344 0 " clip-rule="nonzero"/></clipPath><clipPath id="02cd459e55"><path d="M 47 5 L 62.695312 5 L 62.695312 17 L 47 17 Z M 47 5 " clip-rule="nonzero"/></clipPath><clipPath id="729da70263"><path d="M 34 28 L 50 28 L 50 39.632812 L 34 39.632812 Z M 34 28 " clip-rule="nonzero"/></clipPath></defs><g clip-path="url(#c1c697b1f7)"><path fill="#ffffff" d="M 45.0625 9.226562 L 45.0625 5.527344 C 45.0625 5.113281 44.765625 4.769531 44.375 4.6875 L 44.375 2.671875 C 44.375 0.839844 42.875 -0.660156 41.042969 -0.660156 L 25.734375 -0.660156 C 23.902344 -0.660156 22.402344 0.839844 22.402344 2.671875 L 22.402344 35.964844 C 22.402344 37.796875 23.902344 39.296875 25.734375 39.296875 L 41.042969 39.296875 C 42.875 39.296875 44.375 37.796875 44.375 35.964844 L 44.375 14.871094 C 44.765625 14.789062 45.0625 14.4375 45.0625 14.023438 L 45.0625 11.824219 C 45.0625 11.414062 44.765625 11.066406 44.375 10.984375 L 44.375 10.066406 C 44.765625 9.984375 45.0625 9.640625 45.0625 9.226562 Z M 45.0625 9.226562 " fill-opacity="1" fill-rule="evenodd"/></g><path fill="#ffffff" d="M 42.035156 35.964844 C 42.035156 36.507812 41.585938 36.957031 41.042969 36.957031 L 25.734375 36.957031 C 25.195312 36.957031 24.742188 36.503906 24.742188 35.964844 L 24.742188 30.804688 L 24.753906 30.804688 L 24.753906 8.160156 L 24.742188 8.160156 L 24.742188 2.671875 C 24.742188 2.132812 25.195312 1.679688 25.734375 1.679688 L 28.347656 1.679688 L 28.359375 1.695312 C 28.875 2.5 29.695312 2.949219 30.648438 2.949219 L 36.136719 2.949219 C 37.085938 2.949219 37.90625 2.496094 38.421875 1.699219 L 38.433594 1.679688 L 41.042969 1.679688 C 41.585938 1.679688 42.035156 2.128906 42.035156 2.671875 Z M 42.035156 35.964844 " fill-opacity="1" fill-rule="evenodd"/><path fill="#008037" d="M 37.769531 11.90625 C 35.820312 11.25 34.398438 12.515625 33.464844 14.15625 C 33.453125 14.175781 33.433594 14.191406 33.40625 14.191406 C 33.382812 14.191406 33.363281 14.175781 33.351562 14.15625 C 32.453125 12.570312 31.070312 11.300781 29.167969 11.867188 C 27.605469 12.332031 26.457031 13.847656 26.457031 15.640625 C 26.457031 16.089844 26.542969 16.523438 26.6875 16.941406 C 26.707031 17 26.734375 17.058594 26.757812 17.113281 L 26.753906 17.113281 C 26.753906 17.113281 26.886719 17.566406 27.269531 18.113281 C 27.292969 18.148438 27.316406 18.1875 27.339844 18.222656 C 28.230469 19.570312 29.621094 20.738281 30.652344 21.746094 L 32.960938 23.871094 C 33.214844 24.105469 33.601562 24.105469 33.855469 23.871094 L 36.164062 21.746094 C 37.804688 20.144531 40.359375 18.125 40.359375 15.640625 C 40.359375 13.894531 39.269531 12.414062 37.769531 11.90625 Z M 37.769531 11.90625 " fill-opacity="1" fill-rule="evenodd"/><path fill="#ffffff" d="M 36.0625 17.5 C 35.914062 17.5 35.777344 17.585938 35.714844 17.714844 L 35.542969 18.0625 L 35.136719 16.761719 C 35.089844 16.601562 34.949219 16.492188 34.78125 16.484375 C 34.617188 16.480469 34.46875 16.578125 34.40625 16.730469 L 33.617188 18.699219 L 32.773438 15.773438 C 32.722656 15.613281 32.582031 15.5 32.414062 15.496094 C 32.246094 15.488281 32.09375 15.589844 32.035156 15.746094 L 31.347656 17.5625 L 26.941406 17.5625 C 27.023438 17.722656 27.128906 17.910156 27.269531 18.113281 C 27.292969 18.148438 27.316406 18.1875 27.339844 18.222656 C 27.367188 18.261719 27.398438 18.300781 27.425781 18.339844 L 31.617188 18.339844 C 31.78125 18.339844 31.925781 18.242188 31.980469 18.089844 L 32.351562 17.113281 L 33.1875 20.003906 C 33.234375 20.160156 33.375 20.273438 33.539062 20.28125 C 33.546875 20.28125 33.550781 20.28125 33.558594 20.28125 C 33.71875 20.28125 33.859375 20.1875 33.921875 20.039062 L 34.722656 18.035156 L 35.085938 19.21875 C 35.132812 19.371094 35.269531 19.480469 35.425781 19.492188 C 35.582031 19.503906 35.734375 19.421875 35.804688 19.277344 L 36.300781 18.277344 L 39.441406 18.277344 C 39.609375 18.023438 39.761719 17.765625 39.890625 17.5 Z M 36.0625 17.5 " fill-opacity="1" fill-rule="nonzero"/><path fill="#008037" d="M 42.542969 37.585938 L 58.332031 10.0625 C 59.007812 8.878906 58.597656 7.359375 57.414062 6.679688 C 56.234375 6.003906 54.710938 6.414062 54.03125 7.597656 L 38.246094 35.121094 C 37.566406 36.304688 37.976562 37.824219 39.160156 38.503906 C 40.34375 39.183594 41.863281 38.769531 42.542969 37.585938 Z M 42.542969 37.585938 " fill-opacity="1" fill-rule="nonzero"/><path fill="#008037" d="M 43.558594 9.921875 L 43.425781 10.148438 C 42.765625 11.300781 43.164062 12.765625 44.316406 13.425781 L 58.203125 21.394531 C 59.355469 22.054688 60.820312 21.65625 61.480469 20.507812 L 61.613281 20.277344 C 62.273438 19.125 61.875 17.660156 60.726562 17 L 46.835938 9.03125 C 45.6875 8.371094 44.21875 8.769531 43.558594 9.921875 Z M 43.558594 9.921875 " fill-opacity="1" fill-rule="nonzero"/><g clip-path="url(#02cd459e55)"><path fill="#525252" d="M 47.910156 6.878906 C 47.25 8.03125 47.648438 9.496094 48.800781 10.15625 L 58.761719 15.875 C 59.914062 16.535156 61.382812 16.136719 62.039062 14.984375 C 62.699219 13.832031 62.304688 12.367188 61.152344 11.707031 L 51.1875 5.992188 C 50.039062 5.332031 48.570312 5.730469 47.910156 6.878906 Z M 47.910156 6.878906 " fill-opacity="1" fill-rule="nonzero"/></g><path fill="#008037" d="M 53.140625 35.046875 L 53.273438 34.820312 C 53.933594 33.667969 53.535156 32.199219 52.382812 31.542969 L 38.496094 23.574219 C 37.34375 22.914062 35.875 23.3125 35.214844 24.460938 L 35.085938 24.691406 C 34.425781 25.84375 34.824219 27.308594 35.972656 27.96875 L 49.863281 35.9375 C 51.015625 36.597656 52.480469 36.199219 53.140625 35.046875 Z M 53.140625 35.046875 " fill-opacity="1" fill-rule="nonzero"/><g clip-path="url(#729da70263)"><path fill="#525252" d="M 48.789062 38.089844 C 49.449219 36.9375 49.050781 35.472656 47.902344 34.8125 L 37.9375 29.097656 C 36.785156 28.433594 35.316406 28.832031 34.65625 29.984375 C 33.996094 31.132812 34.394531 32.601562 35.546875 33.261719 L 45.511719 38.976562 C 46.660156 39.636719 48.128906 39.238281 48.789062 38.089844 Z M 48.789062 38.089844 " fill-opacity="1" fill-rule="nonzero"/></g></svg>