<svg xmlns="http://www.w3.org/2000/svg" xmlns:xlink="http://www.w3.org/1999/xlink" width="112" zoomAndPan="magnify" viewBox="0 0 84 42" height="56" preserveAspectRatio="xMidYMid meet" version="1.0"><defs><clipPath id="0a26437656"><path d="M 31.78125 8.71875 L 44 8.71875 L 44 29.230469 L 31.78125 29.230469 Z M 31.78125 8.71875 " clip-rule="nonzero"/></clipPath><clipPath id="8d014fbd6a"><path d="M 44 11 L 52.292969 11 L 52.292969 18 L 44 18 Z M 44 11 " clip-rule="nonzero"/></clipPath><clipPath id="7daa9f22b1"><path d="M 37 23 L 46 23 L 46 29.230469 L 37 29.230469 Z M 37 23 " clip-rule="nonzero"/></clipPath></defs><g clip-path="url(#0a26437656)"><path fill="#ffffff" d="M 43.316406 13.75 L 43.316406 11.867188 C 43.316406 11.65625 43.164062 11.480469 42.964844 11.4375 L 42.964844 10.414062 C 42.964844 9.480469 42.203125 8.71875 41.269531 8.71875 L 33.476562 8.71875 C 32.542969 8.71875 31.78125 9.480469 31.78125 10.414062 L 31.78125 27.363281 C 31.78125 28.296875 32.542969 29.058594 33.476562 29.058594 L 41.269531 29.058594 C 42.203125 29.058594 42.964844 28.296875 42.964844 27.363281 L 42.964844 16.625 C 43.164062 16.582031 43.316406 16.402344 43.316406 16.191406 L 43.316406 15.074219 C 43.316406 14.863281 43.164062 14.6875 42.964844 14.644531 L 42.964844 14.179688 C 43.164062 14.136719 43.316406 13.960938 43.316406 13.75 Z M 43.316406 13.75 " fill-opacity="1" fill-rule="evenodd"/></g><path fill="#ffffff" d="M 41.777344 27.363281 C 41.777344 27.640625 41.546875 27.867188 41.269531 27.867188 L 33.476562 27.867188 C 33.203125 27.867188 32.972656 27.636719 32.972656 27.363281 L 32.972656 24.734375 L 32.976562 24.734375 L 32.976562 13.207031 L 32.972656 13.207031 L 32.972656 10.414062 C 32.972656 10.140625 33.203125 9.910156 33.476562 9.910156 L 34.808594 9.910156 L 34.8125 9.914062 C 35.074219 10.324219 35.492188 10.554688 35.980469 10.554688 L 38.773438 10.554688 C 39.253906 10.554688 39.671875 10.324219 39.933594 9.917969 L 39.941406 9.910156 L 41.269531 9.910156 C 41.546875 9.910156 41.777344 10.136719 41.777344 10.414062 Z M 41.777344 27.363281 " fill-opacity="1" fill-rule="evenodd"/><path fill="#008037" d="M 39.605469 15.113281 C 38.613281 14.78125 37.886719 15.425781 37.410156 16.257812 C 37.40625 16.269531 37.394531 16.277344 37.382812 16.277344 C 37.371094 16.277344 37.359375 16.269531 37.351562 16.257812 C 36.894531 15.453125 36.195312 14.804688 35.222656 15.09375 C 34.429688 15.332031 33.84375 16.101562 33.84375 17.015625 C 33.84375 17.246094 33.886719 17.464844 33.960938 17.679688 C 33.972656 17.707031 33.984375 17.738281 33.996094 17.765625 C 33.996094 17.765625 34.0625 17.996094 34.257812 18.273438 C 34.269531 18.292969 34.28125 18.3125 34.292969 18.332031 C 34.746094 19.015625 35.453125 19.609375 35.980469 20.125 L 37.15625 21.207031 C 37.285156 21.324219 37.480469 21.324219 37.609375 21.207031 L 38.785156 20.125 C 39.621094 19.308594 40.921875 18.28125 40.921875 17.015625 C 40.921875 16.125 40.367188 15.371094 39.605469 15.113281 Z M 39.605469 15.113281 " fill-opacity="1" fill-rule="evenodd"/><path fill="#ffffff" d="M 38.734375 17.960938 C 38.660156 17.960938 38.589844 18.003906 38.558594 18.074219 L 38.46875 18.25 L 38.265625 17.585938 C 38.238281 17.503906 38.167969 17.449219 38.082031 17.445312 C 37.996094 17.441406 37.921875 17.492188 37.890625 17.570312 L 37.488281 18.574219 L 37.058594 17.082031 C 37.035156 17 36.960938 16.945312 36.875 16.941406 C 36.792969 16.9375 36.714844 16.988281 36.683594 17.070312 L 36.335938 17.996094 L 34.089844 17.996094 C 34.132812 18.074219 34.1875 18.171875 34.257812 18.273438 C 34.269531 18.292969 34.28125 18.3125 34.292969 18.332031 C 34.308594 18.351562 34.324219 18.371094 34.335938 18.390625 L 36.472656 18.390625 C 36.554688 18.390625 36.628906 18.339844 36.65625 18.261719 L 36.84375 17.765625 L 37.269531 19.234375 C 37.292969 19.316406 37.367188 19.375 37.449219 19.378906 C 37.453125 19.378906 37.457031 19.378906 37.460938 19.378906 C 37.539062 19.378906 37.613281 19.328125 37.644531 19.253906 L 38.050781 18.234375 L 38.238281 18.839844 C 38.261719 18.914062 38.328125 18.96875 38.410156 18.976562 C 38.488281 18.980469 38.566406 18.941406 38.605469 18.867188 L 38.855469 18.355469 L 40.453125 18.355469 C 40.539062 18.230469 40.617188 18.097656 40.683594 17.960938 Z M 38.734375 17.960938 " fill-opacity="1" fill-rule="nonzero"/><path fill="#008037" d="M 42.035156 28.1875 L 50.070312 14.175781 C 50.414062 13.574219 50.207031 12.800781 49.605469 12.453125 C 49.003906 12.109375 48.226562 12.320312 47.882812 12.921875 L 39.84375 26.933594 C 39.5 27.535156 39.710938 28.308594 40.3125 28.65625 C 40.914062 29 41.6875 28.789062 42.035156 28.1875 Z M 42.035156 28.1875 " fill-opacity="1" fill-rule="nonzero"/><path fill="#008037" d="M 42.550781 14.105469 L 42.484375 14.21875 C 42.148438 14.804688 42.347656 15.550781 42.933594 15.890625 L 50.007812 19.945312 C 50.59375 20.28125 51.339844 20.078125 51.675781 19.492188 L 51.742188 19.375 C 52.078125 18.789062 51.875 18.042969 51.289062 17.707031 L 44.21875 13.652344 C 43.632812 13.316406 42.886719 13.519531 42.550781 14.105469 Z M 42.550781 14.105469 " fill-opacity="1" fill-rule="nonzero"/><g clip-path="url(#8d014fbd6a)"><path fill="#525252" d="M 44.765625 12.554688 C 44.429688 13.140625 44.632812 13.886719 45.21875 14.222656 L 50.289062 17.132812 C 50.875 17.46875 51.625 17.269531 51.960938 16.683594 C 52.296875 16.09375 52.09375 15.347656 51.507812 15.011719 L 46.433594 12.101562 C 45.847656 11.765625 45.101562 11.96875 44.765625 12.554688 Z M 44.765625 12.554688 " fill-opacity="1" fill-rule="nonzero"/></g><path fill="#008037" d="M 47.429688 26.894531 L 47.496094 26.777344 C 47.832031 26.195312 47.628906 25.445312 47.042969 25.109375 L 39.972656 21.054688 C 39.386719 20.71875 38.640625 20.921875 38.304688 21.507812 L 38.234375 21.625 C 37.902344 22.210938 38.101562 22.957031 38.6875 23.292969 L 45.757812 27.347656 C 46.347656 27.683594 47.09375 27.480469 47.429688 26.894531 Z M 47.429688 26.894531 " fill-opacity="1" fill-rule="nonzero"/><g clip-path="url(#7daa9f22b1)"><path fill="#525252" d="M 45.214844 28.445312 C 45.546875 27.859375 45.347656 27.113281 44.761719 26.773438 L 39.6875 23.867188 C 39.101562 23.53125 38.355469 23.730469 38.019531 24.316406 C 37.683594 24.902344 37.886719 25.652344 38.472656 25.988281 L 43.542969 28.898438 C 44.128906 29.230469 44.878906 29.03125 45.214844 28.445312 Z M 45.214844 28.445312 " fill-opacity="1" fill-rule="nonzero"/></g></svg>