<svg xmlns="http://www.w3.org/2000/svg" xmlns:xlink="http://www.w3.org/1999/xlink" width="112" zoomAndPan="magnify" viewBox="0 0 84 42" height="56" preserveAspectRatio="xMidYMid meet" version="1.0"><defs><clipPath id="c8e8402043"><path d="M 26.199219 9.074219 L 57.699219 9.074219 L 57.699219 32 L 26.199219 32 Z M 26.199219 9.074219 " clip-rule="nonzero"/></clipPath><clipPath id="1da637ef2d"><path d="M 26.199219 32 L 57.699219 32 L 57.699219 35.445312 L 26.199219 35.445312 Z M 26.199219 32 " clip-rule="nonzero"/></clipPath></defs><g clip-path="url(#c8e8402043)"><path fill="#008f39" d="M 56.203125 9.074219 L 27.699219 9.074219 C 26.871094 9.074219 26.199219 9.757812 26.199219 10.59375 L 26.199219 30.320312 C 26.199219 31.15625 26.871094 31.839844 27.699219 31.839844 L 56.203125 31.839844 C 57.027344 31.839844 57.699219 31.15625 57.699219 30.320312 L 57.699219 10.59375 C 57.699219 9.757812 57.027344 9.074219 56.203125 9.074219 Z M 57.199219 30.320312 C 57.199219 30.878906 56.75 31.332031 56.203125 31.332031 L 27.699219 31.332031 C 27.148438 31.332031 26.699219 30.878906 26.699219 30.320312 L 26.699219 10.59375 C 26.699219 10.035156 27.148438 9.582031 27.699219 9.582031 L 56.203125 9.582031 C 56.75 9.582031 57.199219 10.035156 57.199219 10.59375 Z M 57.199219 30.320312 " fill-opacity="1" fill-rule="nonzero"/></g><path fill="#008f39" d="M 54.414062 10.878906 L 29.484375 10.878906 C 28.660156 10.878906 27.988281 11.5625 27.988281 12.398438 L 27.988281 28.515625 C 27.988281 29.351562 28.660156 30.03125 29.484375 30.03125 L 54.414062 30.03125 C 55.238281 30.03125 55.910156 29.351562 55.910156 28.515625 L 55.910156 12.398438 C 55.910156 11.5625 55.238281 10.878906 54.414062 10.878906 Z M 37.039062 22.953125 C 36.835938 23.09375 36.445312 23.027344 36.171875 22.691406 C 35.996094 22.496094 35.511719 22.039062 34.804688 22.007812 C 34.425781 21.992188 34.101562 22.078125 33.839844 22.257812 C 33.597656 22.421875 33.417969 22.660156 33.328125 22.933594 C 33.226562 23.246094 32.972656 23.472656 32.675781 23.511719 C 32.425781 23.550781 32.085938 23.242188 31.789062 22.96875 C 31.234375 22.464844 31.015625 22.355469 30.683594 22.3125 C 30.679688 22.308594 30.671875 22.308594 30.664062 22.308594 C 31.28125 21.71875 31.683594 21.269531 31.992188 20.925781 C 32.480469 20.382812 32.664062 20.179688 33.054688 20.101562 C 33.605469 20 34.027344 20.234375 35.011719 21 L 35.011719 21.003906 L 35.351562 21.269531 C 35.835938 21.652344 36.4375 22.121094 37.203125 22.671875 C 37.175781 22.773438 37.128906 22.890625 37.039062 22.953125 Z M 43.390625 21.074219 C 43.398438 20.953125 43.320312 20.84375 43.207031 20.8125 C 43.089844 20.78125 42.96875 20.839844 42.917969 20.949219 C 42.617188 21.578125 42.230469 22.164062 41.761719 22.691406 C 41.488281 23.003906 41.191406 23.289062 40.859375 23.558594 C 40.652344 23.726562 40.433594 23.886719 40.191406 24.039062 C 39.308594 23.507812 38.445312 22.941406 37.625 22.355469 C 36.804688 21.769531 36.167969 21.269531 35.65625 20.867188 L 35.453125 20.707031 C 35.902344 19.328125 37.753906 18.304688 39.863281 18.304688 C 41.789062 18.304688 43.480469 19.121094 44.121094 20.347656 C 43.789062 21.160156 43.78125 21.886719 43.808594 22.257812 C 43.816406 22.382812 43.929688 22.484375 44.054688 22.492188 C 43.898438 22.753906 43.6875 23.003906 43.429688 23.226562 C 43.351562 22.707031 43.335938 21.988281 43.390625 21.074219 Z M 55.410156 27.550781 C 54.730469 27.171875 54.0625 26.746094 53.425781 26.265625 C 52.628906 25.671875 52.191406 25.234375 51.875 24.914062 C 51.460938 24.503906 51.207031 24.253906 50.652344 24.117188 C 49.707031 23.894531 48.890625 24.242188 48.167969 24.546875 C 47.429688 24.859375 46.960938 25.039062 46.5625 24.757812 C 46.414062 24.652344 46.335938 24.527344 46.246094 24.386719 C 46.117188 24.175781 45.96875 23.933594 45.597656 23.824219 C 45.105469 23.675781 44.695312 23.851562 44.363281 23.996094 C 44.144531 24.089844 43.953125 24.171875 43.820312 24.125 C 43.703125 24.085938 43.617188 23.933594 43.558594 23.773438 C 44.035156 23.40625 44.398438 22.964844 44.621094 22.488281 C 45.179688 22.449219 45.957031 22.28125 46.738281 21.734375 C 47.945312 20.882812 48.367188 19.695312 48.488281 19.253906 L 49.261719 18.476562 C 50.65625 17.164062 51.910156 15.773438 53 14.320312 C 54.011719 12.960938 54.300781 12.460938 54.023438 12.179688 C 53.765625 11.921875 53.324219 12.136719 51.890625 13.226562 C 50.46875 14.316406 49.085938 15.578125 47.785156 16.988281 L 47.015625 17.765625 C 46.578125 17.886719 45.402344 18.316406 44.558594 19.535156 C 44.496094 19.625 44.441406 19.71875 44.386719 19.8125 C 43.5625 18.59375 41.816406 17.796875 39.863281 17.796875 C 37.589844 17.796875 35.632812 18.867188 35.035156 20.382812 C 34.261719 19.800781 33.699219 19.464844 32.960938 19.605469 C 32.40625 19.710938 32.144531 20.003906 31.621094 20.585938 C 31.25 21.003906 30.738281 21.574219 29.863281 22.371094 L 29.550781 22.652344 C 29.203125 22.960938 28.847656 23.253906 28.488281 23.542969 L 28.488281 12.398438 C 28.488281 11.839844 28.933594 11.386719 29.484375 11.386719 L 54.414062 11.386719 C 54.964844 11.386719 55.410156 11.839844 55.410156 12.398438 Z M 46.378906 19.898438 C 46.425781 19.949219 46.492188 19.972656 46.554688 19.972656 C 46.617188 19.972656 46.683594 19.949219 46.730469 19.898438 L 47.703125 18.917969 L 47.984375 19.199219 C 47.851562 19.632812 47.460938 20.605469 46.453125 21.316406 C 45.695312 21.847656 44.945312 21.976562 44.445312 21.992188 C 44.394531 21.992188 44.34375 21.996094 44.296875 21.996094 C 44.292969 21.621094 44.347656 21.050781 44.625 20.433594 C 44.71875 20.226562 44.835938 20.019531 44.96875 19.824219 C 45.671875 18.804688 46.640625 18.410156 47.070312 18.277344 L 47.351562 18.558594 L 46.378906 19.539062 C 46.28125 19.640625 46.28125 19.800781 46.378906 19.898438 Z M 47.5 17.992188 L 47.964844 17.523438 L 48.730469 18.296875 L 48.265625 18.765625 Z M 47.5 17.992188 " fill-opacity="1" fill-rule="nonzero"/><g clip-path="url(#1da637ef2d)"><path fill="#008f39" d="M 56.449219 32.53125 L 27.449219 32.53125 C 26.761719 32.53125 26.199219 33.101562 26.199219 33.800781 L 26.199219 34.179688 C 26.199219 34.878906 26.761719 35.445312 27.449219 35.445312 L 56.449219 35.445312 C 57.136719 35.445312 57.699219 34.878906 57.699219 34.179688 L 57.699219 33.800781 C 57.699219 33.101562 57.136719 32.53125 56.449219 32.53125 Z M 57.199219 34.179688 C 57.199219 34.597656 56.863281 34.941406 56.449219 34.941406 L 27.449219 34.941406 C 27.035156 34.941406 26.699219 34.597656 26.699219 34.179688 L 26.699219 33.800781 C 26.699219 33.382812 27.035156 33.039062 27.449219 33.039062 L 39.019531 33.039062 L 39.019531 33.992188 C 39.019531 34.132812 39.128906 34.246094 39.269531 34.246094 L 44.632812 34.246094 C 44.769531 34.246094 44.882812 34.132812 44.882812 33.992188 L 44.882812 33.039062 L 56.449219 33.039062 C 56.863281 33.039062 57.199219 33.382812 57.199219 33.800781 Z M 57.199219 34.179688 " fill-opacity="1" fill-rule="nonzero"/></g></svg>