<svg xmlns="http://www.w3.org/2000/svg" xmlns:xlink="http://www.w3.org/1999/xlink" width="112" zoomAndPan="magnify" viewBox="0 0 84 42" height="56" preserveAspectRatio="xMidYMid meet" version="1.0"><defs><clipPath id="c9c912aa06"><path d="M 23.984375 4.101562 L 59.878906 4.101562 L 59.878906 39.996094 L 23.984375 39.996094 Z M 23.984375 4.101562 " clip-rule="nonzero"/></clipPath></defs><path fill="#008f39" d="M 39.722656 11.257812 L 44.136719 11.257812 L 44.136719 12.5 L 39.722656 12.5 Z M 39.722656 11.257812 " fill-opacity="1" fill-rule="nonzero"/><path fill="#008f39" d="M 40.433594 31.351562 L 43.429688 31.351562 L 43.429688 32.59375 L 40.433594 32.59375 Z M 40.433594 31.351562 " fill-opacity="1" fill-rule="nonzero"/><path fill="#008f39" d="M 36.5625 13.890625 L 47.300781 13.890625 L 47.300781 29.824219 L 36.5625 29.824219 Z M 36.5625 13.890625 " fill-opacity="1" fill-rule="nonzero"/><g clip-path="url(#c9c912aa06)"><path fill="#008f39" d="M 41.929688 4.089844 C 32.019531 4.089844 23.988281 12.125 23.988281 22.035156 C 23.988281 31.945312 32.019531 39.976562 41.929688 39.976562 C 51.839844 39.976562 59.871094 31.945312 59.871094 22.035156 C 59.871094 12.125 51.839844 4.089844 41.929688 4.089844 Z M 49.125 31.773438 C 49.125 33.015625 47.816406 34.019531 46.203125 34.019531 L 37.660156 34.019531 C 36.042969 34.019531 34.734375 33.015625 34.734375 31.773438 L 34.734375 12.292969 C 34.734375 11.054688 36.042969 10.046875 37.660156 10.046875 L 46.203125 10.046875 C 47.816406 10.046875 49.125 11.054688 49.125 12.292969 Z M 49.125 31.773438 " fill-opacity="1" fill-rule="nonzero"/></g></svg>