<svg xmlns="http://www.w3.org/2000/svg" xmlns:xlink="http://www.w3.org/1999/xlink" width="112" zoomAndPan="magnify" viewBox="0 0 84 42" height="56" preserveAspectRatio="xMidYMid meet" version="1.0"><defs><clipPath id="5d13b9456a"><path d="M 25.503906 9.375 L 53 9.375 L 53 29.15625 L 25.503906 29.15625 Z M 25.503906 9.375 " clip-rule="nonzero"/></clipPath></defs><path fill="#008037" d="M 36.824219 24.210938 C 36.554688 24.210938 36.332031 24.433594 36.332031 24.707031 C 36.332031 24.976562 36.554688 25.199219 36.824219 25.199219 L 40.761719 25.199219 C 41.03125 25.199219 41.253906 24.976562 41.253906 24.707031 C 41.253906 24.433594 41.03125 24.210938 40.761719 24.210938 Z M 36.824219 24.210938 " fill-opacity="1" fill-rule="nonzero"/><path fill="#008037" d="M 29.960938 24.558594 C 29.960938 24.671875 29.921875 24.773438 29.839844 24.855469 C 29.757812 24.9375 29.660156 24.976562 29.542969 24.976562 C 29.429688 24.976562 29.332031 24.9375 29.25 24.855469 C 29.167969 24.773438 29.125 24.671875 29.125 24.558594 C 29.125 24.441406 29.167969 24.34375 29.25 24.261719 C 29.332031 24.179688 29.429688 24.136719 29.542969 24.136719 C 29.660156 24.136719 29.757812 24.179688 29.839844 24.261719 C 29.921875 24.34375 29.960938 24.441406 29.960938 24.558594 Z M 29.960938 24.558594 " fill-opacity="1" fill-rule="nonzero"/><path fill="#008037" d="M 28.316406 24.558594 C 28.316406 24.671875 28.273438 24.773438 28.191406 24.855469 C 28.109375 24.9375 28.011719 24.976562 27.898438 24.976562 C 27.78125 24.976562 27.683594 24.9375 27.601562 24.855469 C 27.519531 24.773438 27.480469 24.671875 27.480469 24.558594 C 27.480469 24.441406 27.519531 24.34375 27.601562 24.261719 C 27.683594 24.179688 27.78125 24.136719 27.898438 24.136719 C 28.011719 24.136719 28.109375 24.179688 28.191406 24.261719 C 28.273438 24.34375 28.316406 24.441406 28.316406 24.558594 Z M 28.316406 24.558594 " fill-opacity="1" fill-rule="nonzero"/><path fill="#008037" d="M 36.503906 13.308594 C 36.359375 13.085938 36.039062 13.011719 35.816406 13.160156 L 31.390625 16.125 C 31.242188 16.226562 31.167969 16.375 31.167969 16.546875 C 31.167969 16.71875 31.242188 16.867188 31.390625 16.96875 C 31.390625 16.96875 35.816406 19.933594 35.816406 19.933594 C 36.039062 20.082031 36.359375 20.03125 36.503906 19.785156 C 36.652344 19.5625 36.605469 19.242188 36.359375 19.09375 L 32.546875 16.546875 L 36.359375 14 C 36.578125 13.851562 36.652344 13.53125 36.503906 13.308594 Z M 36.503906 13.308594 " fill-opacity="1" fill-rule="nonzero"/><path fill="#008037" d="M 41.082031 19.785156 C 41.226562 20.007812 41.546875 20.082031 41.769531 19.933594 L 46.195312 16.96875 C 46.34375 16.867188 46.417969 16.71875 46.417969 16.546875 C 46.417969 16.375 46.34375 16.226562 46.195312 16.125 L 41.769531 13.160156 C 41.546875 13.011719 41.226562 13.0625 41.082031 13.308594 C 40.933594 13.53125 40.980469 13.851562 41.226562 14 L 45.039062 16.546875 L 41.226562 19.09375 C 41.007812 19.242188 40.933594 19.5625 41.082031 19.785156 Z M 41.082031 19.785156 " fill-opacity="1" fill-rule="nonzero"/><path fill="#008037" d="M 39.308594 12.714844 L 37.34375 20.132812 C 37.269531 20.402344 37.441406 20.675781 37.6875 20.726562 C 37.734375 20.726562 37.761719 20.75 37.808594 20.75 C 38.03125 20.75 38.226562 20.601562 38.277344 20.378906 L 40.246094 12.960938 C 40.316406 12.691406 40.144531 12.417969 39.898438 12.367188 C 39.652344 12.292969 39.382812 12.441406 39.308594 12.714844 Z M 39.308594 12.714844 " fill-opacity="1" fill-rule="nonzero"/><g clip-path="url(#5d13b9456a)"><path fill="#008037" d="M 36.824219 28.167969 L 35.347656 28.167969 C 35.078125 28.167969 34.859375 28.390625 34.859375 28.660156 C 34.859375 28.933594 35.078125 29.15625 35.347656 29.15625 L 42.238281 29.15625 C 42.507812 29.15625 42.730469 28.933594 42.730469 28.660156 C 42.730469 28.390625 42.507812 28.167969 42.238281 28.167969 L 40.761719 28.167969 L 40.761719 26.683594 L 50.597656 26.683594 C 51.238281 26.683594 51.78125 26.261719 51.976562 25.695312 L 51.460938 25.695312 C 51.238281 25.695312 51.042969 25.667969 50.84375 25.59375 C 50.773438 25.644531 50.671875 25.695312 50.574219 25.695312 L 26.988281 25.695312 C 26.714844 25.695312 26.496094 25.472656 26.496094 25.199219 L 26.496094 23.714844 L 47.304688 23.714844 L 47.230469 23.640625 C 46.984375 23.394531 46.785156 23.074219 46.6875 22.726562 L 26.496094 22.726562 L 26.496094 10.859375 C 26.496094 10.589844 26.714844 10.367188 26.988281 10.367188 L 50.597656 10.367188 C 50.871094 10.367188 51.089844 10.589844 51.089844 10.859375 L 51.089844 13.382812 C 51.214844 13.355469 51.335938 13.332031 51.484375 13.332031 L 52.074219 13.332031 L 52.074219 10.859375 C 52.074219 10.042969 51.410156 9.375 50.597656 9.375 L 26.988281 9.375 C 26.175781 9.375 25.511719 10.042969 25.511719 10.859375 L 25.511719 25.199219 C 25.511719 26.015625 26.175781 26.683594 26.988281 26.683594 L 36.824219 26.683594 Z M 37.808594 26.683594 L 39.777344 26.683594 L 39.777344 28.167969 L 37.808594 28.167969 Z M 37.808594 26.683594 " fill-opacity="1" fill-rule="nonzero"/></g><path fill="#008037" d="M 56.035156 17.957031 C 55.984375 17.832031 55.9375 17.734375 55.886719 17.609375 C 56.207031 17.140625 56.160156 16.496094 55.742188 16.078125 L 55.25 15.582031 C 55.027344 15.359375 54.707031 15.234375 54.386719 15.234375 C 54.140625 15.234375 53.921875 15.308594 53.722656 15.433594 C 53.625 15.382812 53.503906 15.335938 53.378906 15.285156 C 53.257812 14.71875 52.765625 14.320312 52.199219 14.320312 L 51.507812 14.320312 C 50.917969 14.320312 50.425781 14.742188 50.328125 15.285156 C 50.207031 15.335938 50.109375 15.382812 49.984375 15.433594 C 49.789062 15.308594 49.566406 15.234375 49.320312 15.234375 C 49 15.234375 48.679688 15.359375 48.460938 15.582031 L 47.96875 16.078125 C 47.550781 16.496094 47.5 17.140625 47.820312 17.609375 C 47.769531 17.707031 47.722656 17.832031 47.671875 17.957031 C 47.105469 18.078125 46.714844 18.574219 46.714844 19.144531 L 46.714844 19.835938 C 46.714844 20.429688 47.132812 20.921875 47.671875 21.023438 C 47.722656 21.144531 47.769531 21.246094 47.820312 21.367188 C 47.695312 21.566406 47.625 21.789062 47.625 22.035156 C 47.625 22.355469 47.746094 22.679688 47.96875 22.902344 L 48.460938 23.394531 C 48.679688 23.617188 49 23.742188 49.320312 23.742188 C 49.566406 23.742188 49.789062 23.667969 49.984375 23.542969 C 50.082031 23.59375 50.207031 23.640625 50.328125 23.691406 C 50.453125 24.261719 50.945312 24.65625 51.507812 24.65625 L 52.199219 24.65625 C 52.789062 24.65625 53.28125 24.234375 53.378906 23.691406 C 53.503906 23.640625 53.601562 23.59375 53.722656 23.542969 C 53.921875 23.667969 54.140625 23.742188 54.386719 23.742188 C 54.707031 23.742188 55.027344 23.617188 55.25 23.394531 L 55.742188 22.902344 C 55.960938 22.679688 56.085938 22.355469 56.085938 22.035156 C 56.085938 21.789062 56.011719 21.566406 55.886719 21.367188 C 55.9375 21.269531 55.984375 21.144531 56.035156 21.023438 C 56.601562 20.898438 56.996094 20.402344 56.996094 19.835938 L 56.996094 19.144531 C 56.996094 18.574219 56.578125 18.078125 56.035156 17.957031 Z M 56.011719 19.859375 C 56.011719 19.984375 55.914062 20.082031 55.789062 20.082031 L 55.273438 20.082031 C 55.175781 20.625 54.976562 21.097656 54.683594 21.515625 L 55.050781 21.886719 C 55.148438 21.984375 55.148438 22.132812 55.050781 22.207031 L 54.558594 22.703125 C 54.511719 22.753906 54.460938 22.777344 54.386719 22.777344 C 54.3125 22.777344 54.265625 22.753906 54.214844 22.703125 L 53.847656 22.332031 C 53.429688 22.628906 52.9375 22.851562 52.417969 22.925781 L 52.417969 23.445312 C 52.417969 23.566406 52.320312 23.667969 52.199219 23.667969 L 51.507812 23.667969 C 51.386719 23.667969 51.289062 23.566406 51.289062 23.445312 L 51.289062 22.976562 C 50.746094 22.875 50.28125 22.679688 49.863281 22.382812 L 49.445312 22.726562 C 49.394531 22.777344 49.34375 22.800781 49.269531 22.800781 C 49.199219 22.800781 49.171875 22.777344 49.125 22.726562 L 48.632812 22.234375 C 48.535156 22.132812 48.535156 21.984375 48.632812 21.910156 L 49 21.539062 C 48.707031 21.121094 48.484375 20.625 48.410156 20.105469 L 47.894531 20.105469 C 47.769531 20.105469 47.671875 20.007812 47.671875 19.882812 L 47.671875 19.191406 C 47.671875 19.070312 47.769531 18.96875 47.894531 18.96875 L 48.386719 18.96875 C 48.484375 18.425781 48.679688 17.957031 48.976562 17.535156 L 48.632812 17.117188 C 48.535156 17.015625 48.535156 16.867188 48.632812 16.792969 L 49.125 16.300781 C 49.171875 16.25 49.222656 16.226562 49.296875 16.226562 C 49.371094 16.226562 49.417969 16.25 49.46875 16.300781 L 49.835938 16.671875 C 50.253906 16.375 50.746094 16.152344 51.265625 16.078125 L 51.265625 15.558594 C 51.265625 15.433594 51.363281 15.335938 51.484375 15.335938 L 52.171875 15.335938 C 52.296875 15.335938 52.394531 15.433594 52.394531 15.558594 L 52.394531 16.050781 C 52.9375 16.152344 53.402344 16.347656 53.820312 16.644531 L 54.191406 16.273438 C 54.238281 16.226562 54.289062 16.199219 54.363281 16.199219 C 54.4375 16.199219 54.484375 16.226562 54.535156 16.273438 L 55.027344 16.769531 C 55.125 16.867188 55.125 17.015625 55.027344 17.089844 L 54.65625 17.460938 C 54.953125 17.882812 55.175781 18.375 55.25 18.894531 L 55.765625 18.894531 C 55.886719 18.894531 55.984375 18.996094 55.984375 19.117188 L 55.984375 19.859375 Z M 56.011719 19.859375 " fill-opacity="1" fill-rule="nonzero"/><path fill="#008037" d="M 51.828125 17.535156 C 50.746094 17.535156 49.863281 18.425781 49.863281 19.511719 C 49.863281 20.601562 50.746094 21.492188 51.828125 21.492188 C 52.910156 21.492188 53.796875 20.601562 53.796875 19.511719 C 53.796875 18.425781 52.910156 17.535156 51.828125 17.535156 Z M 51.828125 20.503906 C 51.289062 20.503906 50.84375 20.058594 50.84375 19.511719 C 50.84375 18.96875 51.289062 18.523438 51.828125 18.523438 C 52.371094 18.523438 52.8125 18.96875 52.8125 19.511719 C 52.8125 20.058594 52.371094 20.503906 51.828125 20.503906 Z M 51.828125 20.503906 " fill-opacity="1" fill-rule="nonzero"/></svg>